<svg xmlns="http://www.w3.org/2000/svg" viewBox="0 0 400 100"><defs><style type="text/css">@import url(https://fonts.googleapis.com/css2?family=Exo+2:wght@600&amp;display=swap);</style><linearGradient id="logoGradient" x1="0%" x2="100%" y1="0%" y2="0%"><stop offset="0%" style="stop-color:#2d1b69"/><stop offset="50%" style="stop-color:#1a365d"/><stop offset="100%" style="stop-color:#000"/></linearGradient><path id="orbitPath" d="M 25,50 Q 50,20 75,50 Q 50,80 25,50 Z"/></defs><ellipse cx="200" cy="50" fill="#fff" fill-opacity=".4" rx="195" ry="48"/><g id="icon" fill="url(#logoGradient)"><path fill="none" stroke="url(#logoGradient)" stroke-width="1.5" d="M 25,50 Q 50,20 75,50" opacity=".8"/><path fill="none" stroke="url(#logoGradient)" stroke-width="1.5" d="M 25,50 Q 50,80 75,50" opacity=".8"/><path fill="none" stroke="url(#logoGradient)" stroke-width="1.5" d="M 75,50 Q 95,50 115,50" opacity=".6"/><path fill="none" stroke="url(#logoGradient)" stroke-width="1.5" d="M 25,50 C 45,5 105,5 115,50" opacity=".4"/><path fill="none" stroke="url(#logoGradient)" stroke-width="1.5" d="M 25,50 C 45,95 105,95 115,50" opacity=".4"/><circle cx="25" cy="50" r="7" opacity=".7"/><circle cx="75" cy="50" r="9"/><circle cx="115" cy="50" r="7" opacity=".7"/><circle r="3.5" opacity=".9"><animateMotion dur="5s" repeatCount="indefinite"><mpath href="#orbitPath"/></animateMotion></circle><circle r="3.5" opacity=".9"><animateMotion begin="-2.5s" dur="5s" repeatCount="indefinite"><mpath href="#orbitPath"/></animateMotion></circle></g><text x="150" y="62" fill="url(#logoGradient)" font-family="'Exo 2', sans-serif" font-size="40" font-weight="600">LUMIN.AI</text></svg>
